<svg xmlns="http://www.w3.org/2000/svg" xmlns:xlink="http://www.w3.org/1999/xlink" width="507" height="54" viewBox="0 0 507 54">
  <defs>
    <path id="kat-logo-a" d="M4.07421875,41.0429688 L4.07421875,21.3828125 L23.7070312,41.0429688 L28.7382812,41.0429688 L8.3125,20.3710938 L27.4804688,1.23046875 L22.421875,1.23046875 L4.07421875,19.5234375 L4.07421875,1.23046875 L0,1.23046875 L0,41.0429688 L4.07421875,41.0429688 Z M44.6796875,41.6171875 C46.921875,41.6171875 48.8723958,41.0885417 50.53125,40.03125 C52.1901042,38.9739583 53.4388021,37.5338542 54.2773438,35.7109375 L54.2773438,35.7109375 L54.2773438,41.0429688 L58.1328125,41.0429688 L58.1328125,12.9882812 L54.3046875,12.9882812 L54.3046875,17.9648438 C53.484375,16.2877604 52.2265625,14.9205729 50.53125,13.8632812 C48.8359375,12.8059896 46.9036458,12.2773438 44.734375,12.2773438 C40.7057292,12.2773438 37.4791667,13.6354167 35.0546875,16.3515625 C32.6302083,19.0677083 31.4179688,22.5768229 31.4179688,26.8789062 C31.4179688,29.7044271 31.9375,32.2246094 32.9765625,34.4394531 C34.015625,36.6542969 35.546875,38.4042969 37.5703125,39.6894531 C39.59375,40.9746094 41.9635417,41.6171875 44.6796875,41.6171875 Z M45.0898438,38.4453125 C42.0273438,38.4453125 39.6347656,37.3789062 37.9121094,35.2460938 C36.1894531,33.1132812 35.328125,30.296875 35.328125,26.796875 C35.328125,23.3880208 36.1848958,20.6445312 37.8984375,18.5664062 C39.6119792,16.4882812 42,15.4492188 45.0625,15.4492188 C47.9791667,15.4492188 50.2623698,16.483724 51.9121094,18.5527344 C53.561849,20.6217448 54.3867188,23.3606771 54.3867188,26.7695312 C54.3867188,30.3606771 53.5800781,33.2044271 51.9667969,35.3007812 C50.3535156,37.3971354 48.0611979,38.4453125 45.0898438,38.4453125 Z M80.9921875,41.0703125 L80.9921875,37.953125 C79.8802083,37.953125 78.96875,37.9257812 78.2578125,37.8710938 C77.546875,37.8164062 76.9088542,37.6979167 76.34375,37.515625 C75.7786458,37.3333333 75.3548177,37.1191406 75.0722656,36.8730469 C74.7897135,36.6269531 74.5527344,36.2532552 74.3613281,35.7519531 C74.1699219,35.250651 74.0514323,34.7174479 74.0058594,34.1523438 C73.9602865,33.5872396 73.9375,32.8398438 73.9375,31.9101562 L73.9375,31.9101562 L73.9375,15.5585938 L80.9101562,15.5585938 L80.9101562,12.9882812 L73.9375,12.9882812 L73.9375,4.23828125 L70.1367188,5.359375 L70.1367188,12.9882812 L64.640625,12.9882812 L64.640625,15.5585938 L70.0820312,15.5585938 L70.0820312,31.7460938 C70.0820312,32.8580729 70.1184896,33.7877604 70.1914062,34.5351562 C70.2643229,35.2825521 70.4101562,36.0299479 70.6289062,36.7773438 C70.8476562,37.5247396 71.1621094,38.1308594 71.5722656,38.5957031 C71.9824219,39.0605469 72.5201823,39.484375 73.1855469,39.8671875 C73.8509115,40.25 74.6803385,40.5325521 75.6738281,40.7148438 C76.6673177,40.8971354 77.8385417,41.0065104 79.1875,41.0429688 C79.2604167,41.0429688 79.5566406,41.047526 80.0761719,41.0566406 L80.2414159,41.05951 C80.6609118,41.0667117 80.911169,41.0703125 80.9921875,41.0703125 L80.9921875,41.0703125 Z M92.4492188,41.0429688 L92.4492188,23.953125 C92.4492188,21.7473958 93.4609375,19.7786458 95.484375,18.046875 C97.5078125,16.3151042 99.8229167,15.4492188 102.429688,15.4492188 C104.799479,15.4492188 106.503906,16.1145833 107.542969,17.4453125 C108.582031,18.7760417 109.101562,20.8359375 109.101562,23.625 L109.101562,23.625 L109.101562,41.0429688 L112.957031,41.0429688 L112.957031,23.2695312 C112.957031,19.7148438 112.013672,16.9941406 110.126953,15.1074219 C108.240234,13.2207031 105.792969,12.2773438 102.785156,12.2773438 C100.488281,12.2773438 98.4283854,12.7923177 96.6054688,13.8222656 C94.7825521,14.8522135 93.3971354,16.2148438 92.4492188,17.9101562 L92.4492188,17.9101562 L92.4492188,0 L88.59375,0 L88.59375,41.0429688 L92.4492188,41.0429688 Z M133.65625,41.6171875 C135.898438,41.6171875 137.848958,41.0885417 139.507812,40.03125 C141.166667,38.9739583 142.415365,37.5338542 143.253906,35.7109375 L143.253906,35.7109375 L143.253906,41.0429688 L147.109375,41.0429688 L147.109375,12.9882812 L143.28125,12.9882812 L143.28125,17.9648438 C142.460938,16.2877604 141.203125,14.9205729 139.507812,13.8632812 C137.8125,12.8059896 135.880208,12.2773438 133.710938,12.2773438 C129.682292,12.2773438 126.455729,13.6354167 124.03125,16.3515625 C121.606771,19.0677083 120.394531,22.5768229 120.394531,26.8789062 C120.394531,29.7044271 120.914062,32.2246094 121.953125,34.4394531 C122.992188,36.6542969 124.523438,38.4042969 126.546875,39.6894531 C128.570312,40.9746094 130.940104,41.6171875 133.65625,41.6171875 Z M134.066406,38.4453125 C131.003906,38.4453125 128.611328,37.3789062 126.888672,35.2460938 C125.166016,33.1132812 124.304688,30.296875 124.304688,26.796875 C124.304688,23.3880208 125.161458,20.6445312 126.875,18.5664062 C128.588542,16.4882812 130.976562,15.4492188 134.039062,15.4492188 C136.955729,15.4492188 139.238932,16.483724 140.888672,18.5527344 C142.538411,20.6217448 143.363281,23.3606771 143.363281,26.7695312 C143.363281,30.3606771 142.556641,33.2044271 140.943359,35.3007812 C139.330078,37.3971354 137.03776,38.4453125 134.066406,38.4453125 Z M161.382812,41.0429688 L161.382812,25.59375 C161.382812,22.2942708 162.084635,19.8333333 163.488281,18.2109375 C164.891927,16.5885417 166.778646,15.7773438 169.148438,15.7773438 C170.041667,15.7773438 170.989583,15.8867188 171.992188,16.1054688 L171.992188,16.1054688 L172.074219,12.6328125 C171.18099,12.4505208 170.242188,12.359375 169.257812,12.359375 C167.471354,12.359375 165.889974,12.8059896 164.513672,13.6992188 C163.13737,14.5924479 162.09375,15.9505208 161.382812,17.7734375 L161.382812,17.7734375 L161.21875,12.9882812 L157.199219,12.9882812 L157.28125,14.0820312 C157.317708,14.8111979 157.363281,15.7454427 157.417969,16.8847656 C157.472656,18.0240885 157.5,19.0130208 157.5,19.8515625 L157.5,19.8515625 L157.5,41.0429688 L161.382812,41.0429688 Z M182.546875,5.05859375 L182.546875,1.23046875 L178.71875,1.23046875 L178.71875,5.05859375 L182.546875,5.05859375 Z M182.546875,41.0429688 L182.546875,12.9882812 L178.691406,12.9882812 L178.691406,41.0429688 L182.546875,41.0429688 Z M196.628906,41.0429688 L196.628906,22.9960938 C197.048177,20.7721354 198.169271,18.9583333 199.992188,17.5546875 C201.815104,16.1510417 203.938802,15.4492188 206.363281,15.4492188 C208.769531,15.4492188 210.501302,16.2057292 211.558594,17.71875 C212.615885,19.2317708 213.144531,21.5377604 213.144531,24.6367188 L213.144531,24.6367188 L213.144531,41.0429688 L217.027344,41.0429688 L217.027344,24.6367188 C217.027344,16.3971354 213.61849,12.2773438 206.800781,12.2773438 C204.576823,12.2773438 202.539714,12.7786458 200.689453,13.78125 C198.839193,14.7838542 197.449219,16.1966146 196.519531,18.0195312 L196.519531,18.0195312 L196.355469,12.9882812 L192.527344,12.9882812 L192.609375,13.8632812 C192.645833,14.4648438 192.682292,15.2532552 192.71875,16.2285156 C192.755208,17.203776 192.773438,18.0833333 192.773438,18.8671875 L192.773438,18.8671875 L192.773438,41.0429688 L196.628906,41.0429688 Z M238.875,41.6171875 C240.84375,41.6171875 242.753255,41.311849 244.603516,40.7011719 C246.453776,40.0904948 248.071615,39.2291667 249.457031,38.1171875 L249.457031,38.1171875 L248.199219,35.328125 C245.55599,37.40625 242.49349,38.4453125 239.011719,38.4453125 C235.803385,38.4453125 233.242188,37.4700521 231.328125,35.5195312 C229.414062,33.5690104 228.457031,30.8802083 228.457031,27.453125 L228.457031,27.453125 L250.441406,27.453125 C250.456321,27.3039773 250.465134,26.9473786 250.467846,26.383329 L250.46875,25.9765625 C250.46875,21.8385417 249.379557,18.5208333 247.201172,16.0234375 C245.022786,13.5260417 242.010417,12.2773438 238.164062,12.2773438 C234.026042,12.2773438 230.708333,13.6445312 228.210938,16.3789062 C225.713542,19.1132812 224.464844,22.6953125 224.464844,27.125 C224.464844,31.5182292 225.768229,35.031901 228.375,37.6660156 C230.981771,40.3001302 234.481771,41.6171875 238.875,41.6171875 Z M247.050781,24.7460938 L228.59375,24.7460938 C228.903646,21.8658854 229.929036,19.5872396 231.669922,17.9101562 C233.410807,16.2330729 235.602865,15.3945312 238.246094,15.3945312 C240.779948,15.3945312 242.835286,16.2239583 244.412109,17.8828125 C245.988932,19.5416667 246.86849,21.8294271 247.050781,24.7460938 L247.050781,24.7460938 Z M298.074219,41.0429688 L298.074219,37.6523438 L279.507812,37.6523438 L279.507812,1.23046875 L275.433594,1.23046875 L275.433594,41.0429688 L298.074219,41.0429688 Z M307.863281,5.05859375 L307.863281,1.23046875 L304.035156,1.23046875 L304.035156,5.05859375 L307.863281,5.05859375 Z M307.863281,41.0429688 L307.863281,12.9882812 L304.007812,12.9882812 L304.007812,41.0429688 L307.863281,41.0429688 Z M328.316406,52.828125 C332.782552,52.828125 336.236979,51.4973958 338.679688,48.8359375 C341.122396,46.1744792 342.34375,42.4192708 342.34375,37.5703125 L342.34375,37.5703125 L342.34375,19.359375 C342.34375,18.3385417 342.425781,16.2148438 342.589844,12.9882812 L342.589844,12.9882812 L338.707031,12.9882812 L338.515625,17.9375 C337.677083,16.2604167 336.410156,14.8977865 334.714844,13.8496094 C333.019531,12.8014323 331.041667,12.2773438 328.78125,12.2773438 C324.697917,12.2773438 321.475911,13.6171875 319.115234,16.296875 C316.754557,18.9765625 315.574219,22.53125 315.574219,26.9609375 C315.574219,31.28125 316.768229,34.7128906 319.15625,37.2558594 C321.544271,39.7988281 324.688802,41.0703125 328.589844,41.0703125 C330.941406,41.0703125 332.983073,40.5416667 334.714844,39.484375 C336.446615,38.4270833 337.713542,36.9960938 338.515625,35.1914062 L338.515625,35.1914062 L338.515625,38.3085938 C338.515625,42.1731771 337.604167,45.0260417 335.78125,46.8671875 C333.958333,48.7083333 331.433594,49.6289062 328.207031,49.6289062 C325.053385,49.6289062 321.954427,48.8723958 318.910156,47.359375 L318.910156,47.359375 L318.335938,50.7226562 C321.434896,52.1263021 324.761719,52.828125 328.316406,52.828125 Z M328.726562,37.9804688 C325.882812,37.9804688 323.645182,36.9960938 322.013672,35.0273438 C320.382161,33.0585938 319.566406,30.3606771 319.566406,26.9335938 C319.566406,23.4518229 320.423177,20.6673177 322.136719,18.5800781 C323.85026,16.4928385 326.183594,15.4492188 329.136719,15.4492188 C332.053385,15.4492188 334.354818,16.4700521 336.041016,18.5117188 C337.727214,20.5533854 338.570312,23.296875 338.570312,26.7421875 C338.570312,30.1692708 337.704427,32.8990885 335.972656,34.9316406 C334.240885,36.9641927 331.825521,37.9804688 328.726562,37.9804688 Z M356.371094,41.0429688 L356.371094,23.953125 C356.371094,21.7473958 357.382812,19.7786458 359.40625,18.046875 C361.429688,16.3151042 363.744792,15.4492188 366.351562,15.4492188 C368.721354,15.4492188 370.425781,16.1145833 371.464844,17.4453125 C372.503906,18.7760417 373.023438,20.8359375 373.023438,23.625 L373.023438,23.625 L373.023438,41.0429688 L376.878906,41.0429688 L376.878906,23.2695312 C376.878906,19.7148438 375.935547,16.9941406 374.048828,15.1074219 C372.162109,13.2207031 369.714844,12.2773438 366.707031,12.2773438 C364.410156,12.2773438 362.35026,12.7923177 360.527344,13.8222656 C358.704427,14.8522135 357.31901,16.2148438 356.371094,17.9101562 L356.371094,17.9101562 L356.371094,0 L352.515625,0 L352.515625,41.0429688 L356.371094,41.0429688 Z M399.355469,41.0703125 L399.355469,37.953125 C398.24349,37.953125 397.332031,37.9257812 396.621094,37.8710938 C395.910156,37.8164062 395.272135,37.6979167 394.707031,37.515625 C394.141927,37.3333333 393.718099,37.1191406 393.435547,36.8730469 C393.152995,36.6269531 392.916016,36.2532552 392.724609,35.7519531 C392.533203,35.250651 392.414714,34.7174479 392.369141,34.1523438 C392.323568,33.5872396 392.300781,32.8398438 392.300781,31.9101562 L392.300781,31.9101562 L392.300781,15.5585938 L399.273438,15.5585938 L399.273438,12.9882812 L392.300781,12.9882812 L392.300781,4.23828125 L388.5,5.359375 L388.5,12.9882812 L383.003906,12.9882812 L383.003906,15.5585938 L388.445312,15.5585938 L388.445312,31.7460938 C388.445312,32.8580729 388.481771,33.7877604 388.554688,34.5351562 C388.627604,35.2825521 388.773438,36.0299479 388.992188,36.7773438 C389.210938,37.5247396 389.525391,38.1308594 389.935547,38.5957031 C390.345703,39.0605469 390.883464,39.484375 391.548828,39.8671875 C392.214193,40.25 393.04362,40.5325521 394.037109,40.7148438 C395.030599,40.8971354 396.201823,41.0065104 397.550781,41.0429688 C397.623698,41.0429688 397.919922,41.047526 398.439453,41.0566406 L398.604697,41.05951 C399.024193,41.0667117 399.27445,41.0703125 399.355469,41.0703125 L399.355469,41.0703125 Z M412.617188,41.0429688 L412.617188,15.5585937 L419.5625,15.5585937 L419.5625,12.9882812 L412.617188,12.9882812 L412.617188,9.1328125 C412.617188,8.27604167 412.635417,7.61067708 412.671875,7.13671875 C412.708333,6.66276042 412.804036,6.17057292 412.958984,5.66015625 C413.113932,5.14973958 413.341797,4.77604167 413.642578,4.5390625 C413.943359,4.30208333 414.367188,4.07421875 414.914062,3.85546875 C415.460938,3.63671875 416.126302,3.49544271 416.910156,3.43164062 C417.69401,3.36783854 418.669271,3.3359375 419.835938,3.3359375 L419.835938,3.3359375 L419.890625,0.24609375 L418.769531,0.24609375 C417.03776,0.24609375 415.579427,0.369140625 414.394531,0.615234375 C413.209635,0.861328125 412.24349,1.20768229 411.496094,1.65429688 C410.748698,2.10091146 410.174479,2.72981771 409.773438,3.54101562 C409.372396,4.35221354 409.103516,5.22265625 408.966797,6.15234375 C408.830078,7.08203125 408.761719,8.2578125 408.761719,9.6796875 L408.761719,9.6796875 L408.761719,12.9882812 L403.867188,12.9882812 L403.867188,15.5585937 L408.761719,15.5585937 L408.761719,41.0429688 L412.617188,41.0429688 Z M437.226562,41.6171875 C441.638021,41.6171875 445.124349,40.2864583 447.685547,37.625 C450.246745,34.9635417 451.527344,31.4453125 451.527344,27.0703125 C451.527344,22.6041667 450.255859,19.0221354 447.712891,16.3242188 C445.169922,13.6263021 441.683594,12.2773438 437.253906,12.2773438 C432.824219,12.2773438 429.319661,13.6263021 426.740234,16.3242188 C424.160807,19.0221354 422.871094,22.6041667 422.871094,27.0703125 C422.871094,31.4453125 424.15625,34.9635417 426.726562,37.625 C429.296875,40.2864583 432.796875,41.6171875 437.226562,41.6171875 Z M437.226562,38.4453125 C433.945312,38.4453125 431.402344,37.4153646 429.597656,35.3554688 C427.792969,33.2955729 426.890625,30.5338542 426.890625,27.0703125 C426.890625,23.515625 427.792969,20.6901042 429.597656,18.59375 C431.402344,16.4973958 433.945312,15.4492188 437.226562,15.4492188 C440.489583,15.4492188 443.01888,16.4973958 444.814453,18.59375 C446.610026,20.6901042 447.507812,23.515625 447.507812,27.0703125 C447.507812,30.5338542 446.610026,33.2955729 444.814453,35.3554688 C443.01888,37.4153646 440.489583,38.4453125 437.226562,38.4453125 Z M471.242188,41.6171875 C475.653646,41.6171875 479.139974,40.2864583 481.701172,37.625 C484.26237,34.9635417 485.542969,31.4453125 485.542969,27.0703125 C485.542969,22.6041667 484.271484,19.0221354 481.728516,16.3242188 C479.185547,13.6263021 475.699219,12.2773438 471.269531,12.2773438 C466.839844,12.2773438 463.335286,13.6263021 460.755859,16.3242188 C458.176432,19.0221354 456.886719,22.6041667 456.886719,27.0703125 C456.886719,31.4453125 458.171875,34.9635417 460.742188,37.625 C463.3125,40.2864583 466.8125,41.6171875 471.242188,41.6171875 Z M471.242188,38.4453125 C467.960938,38.4453125 465.417969,37.4153646 463.613281,35.3554688 C461.808594,33.2955729 460.90625,30.5338542 460.90625,27.0703125 C460.90625,23.515625 461.808594,20.6901042 463.613281,18.59375 C465.417969,16.4973958 467.960938,15.4492188 471.242188,15.4492188 C474.505208,15.4492188 477.034505,16.4973958 478.830078,18.59375 C480.625651,20.6901042 481.523438,23.515625 481.523438,27.0703125 C481.523438,30.5338542 480.625651,33.2955729 478.830078,35.3554688 C477.034505,37.4153646 474.505208,38.4453125 471.242188,38.4453125 Z M505.941406,41.0703125 L505.941406,37.953125 C504.829427,37.953125 503.917969,37.9257812 503.207031,37.8710938 C502.496094,37.8164062 501.858073,37.6979167 501.292969,37.515625 C500.727865,37.3333333 500.304036,37.1191406 500.021484,36.8730469 C499.738932,36.6269531 499.501953,36.2532552 499.310547,35.7519531 C499.119141,35.250651 499.000651,34.7174479 498.955078,34.1523438 C498.909505,33.5872396 498.886719,32.8398438 498.886719,31.9101562 L498.886719,31.9101562 L498.886719,15.5585938 L505.859375,15.5585938 L505.859375,12.9882812 L498.886719,12.9882812 L498.886719,4.23828125 L495.085938,5.359375 L495.085938,12.9882812 L489.589844,12.9882812 L489.589844,15.5585938 L495.03125,15.5585938 L495.03125,31.7460938 C495.03125,32.8580729 495.067708,33.7877604 495.140625,34.5351562 C495.213542,35.2825521 495.359375,36.0299479 495.578125,36.7773438 C495.796875,37.5247396 496.111328,38.1308594 496.521484,38.5957031 C496.931641,39.0605469 497.469401,39.484375 498.134766,39.8671875 C498.80013,40.25 499.629557,40.5325521 500.623047,40.7148438 C501.616536,40.8971354 502.78776,41.0065104 504.136719,41.0429688 C504.209635,41.0429688 504.505859,41.047526 505.025391,41.0566406 L505.190635,41.05951 C505.610131,41.0667117 505.860388,41.0703125 505.941406,41.0703125 L505.941406,41.0703125 Z"/>
  </defs>
  <g fill="none" transform="translate(.615 .957)">
    <use fill="#FFFFFE" xlink:href="#kat-logo-a"/>
    <use fill="#666" xlink:href="#kat-logo-a"/>
  </g>
</svg>
